<?xml version="1.0" encoding="UTF-8"?><svg xmlns="http://www.w3.org/2000/svg" xmlns:xlink="http://www.w3.org/1999/xlink" version="1.1" x="0px" y="0px" viewBox="0 0 32 32" xml:space="preserve"><g id="Layer_7"><path fill="#999" d="M16 0C7.163 0 0 7.163 0 16c0 8.836 7.163 16 16 16s16-7.164 16-16c0-8.837-7.163-16-16-16z"/><g fill="#FFF"><path d="M9.17 11.652c-.685 0-1.242.556-1.242 1.242v4.967a1.243 1.243 0 0 0 2.484 0v-4.967c0-.686-.557-1.242-1.242-1.242z"/><path d="M22.83 11.652c-.685 0-1.242.556-1.242 1.242v4.967a1.243 1.243 0 0 0 2.484 0v-4.967c0-.686-.556-1.242-1.242-1.242z"/><path d="M11.033 21.587h1.242v3.105a1.243 1.243 0 0 0 2.484 0v-3.105h2.484v3.105a1.243 1.243 0 0 0 2.484 0v-3.105h1.242v-9.314h-9.935v9.314z"/><path d="M18.933 7.649l.638-1.105a.311.311 0 0 0-.538-.311L18.41 7.31A4.943 4.943 0 0 0 16 6.685c-.875 0-1.696.228-2.41.626l-.622-1.078a.311.311 0 0 0-.539.31l.638 1.105a4.958 4.958 0 0 0-2.035 4.004h9.935a4.957 4.957 0 0 0-2.034-4.003zm-4.796 2.14a.621.621 0 1 1 0-1.242.621.621 0 0 1 0 1.242zm3.726 0a.621.621 0 1 1 0-1.242.621.621 0 0 1 0 1.242z"/></g></g><metadata><rdf:RDF xmlns:rdf="http://www.w3.org/1999/02/22-rdf-syntax-ns#" xmlns:rdfs="http://www.w3.org/2000/01/rdf-schema#" xmlns:dc="http://purl.org/dc/elements/1.1/"><rdf:Description about="https://iconscout.com/legal#licenses" dc:title="android,online,social,media" dc:description="android,online,social,media" dc:publisher="Iconscout" dc:date="2017-09-15" dc:format="image/svg+xml" dc:language="en"><dc:creator><rdf:Bag><rdf:li>Epicflaticon by Alfredo</rdf:li></rdf:Bag></dc:creator></rdf:Description></rdf:RDF></metadata></svg>