<?xml version="1.0" encoding="UTF-8"?><svg xmlns="http://www.w3.org/2000/svg" xmlns:xlink="http://www.w3.org/1999/xlink" version="1.1" x="0px" y="0px" viewBox="0 0 32 32" xml:space="preserve"><g id="Layer_7"><path fill="#999" d="M16.005-.005c-8.837 0-16 7.163-16 16 0 8.836 7.163 16 16 16s16-7.164 16-16c0-8.837-7.163-16-16-16z"/><g fill="#FFF"><path d="M16.026 20.863c-.965 0-1.843-.26-2.636-.779a4.958 4.958 0 0 1-1.782-2.004l-3.897-6.83c-.816 1.459-1.187 3.092-1.187 4.75 0 2.376.773 4.448 2.32 6.217s3.471 2.827 5.772 3.174l2.756-4.77c-.278.082-.74.242-1.346.242z"/><path d="M13.038 12.158c.878-.68 1.874-.909 2.988-.909h8.166c-.842-1.435-1.986-2.648-3.433-3.489a9.257 9.257 0 0 0-4.733-1.262 9.298 9.298 0 0 0-4.157.947c-1.287.631-2.478 1.549-3.35 2.728l2.756 4.639a4.854 4.854 0 0 1 1.763-2.654z"/><path d="M24.814 12.437h-5.521c.965.965 1.596 2.203 1.596 3.563a4.855 4.855 0 0 1-.854 2.784l-3.897 6.718c2.598-.025 4.813-.965 6.644-2.821 1.83-1.856 2.746-4.083 2.746-6.681 0-1.212-.204-2.487-.714-3.563z"/><circle cx="16.026" cy="16" r="3.563"/></g></g><metadata><rdf:RDF xmlns:rdf="http://www.w3.org/1999/02/22-rdf-syntax-ns#" xmlns:rdfs="http://www.w3.org/2000/01/rdf-schema#" xmlns:dc="http://purl.org/dc/elements/1.1/"><rdf:Description about="https://iconscout.com/legal#licenses" dc:title="chrome,online,social,media" dc:description="chrome,online,social,media" dc:publisher="Iconscout" dc:date="2017-09-15" dc:format="image/svg+xml" dc:language="en"><dc:creator><rdf:Bag><rdf:li>Epicflaticon by Alfredo</rdf:li></rdf:Bag></dc:creator></rdf:Description></rdf:RDF></metadata></svg>