<?xml version="1.0" encoding="UTF-8"?><svg xmlns="http://www.w3.org/2000/svg" xmlns:xlink="http://www.w3.org/1999/xlink" version="1.1" x="0px" y="0px" viewBox="0 0 32 32" xml:space="preserve"><g id="Layer_7"><path fill="#999" d="M16 0C7.163 0 0 7.163 0 16c0 8.836 7.163 16 16 16s16-7.164 16-16c0-8.837-7.163-16-16-16z"/><path fill="#FFF" d="M20.244 22.441l1.796-1.077v.98l-6.054 3.927-5.92-3.955v-.923l1.771 1.049.197.116.182-.139 3.824-2.935 3.823 2.935.183.139.198-.117zm-4.191-11.074l5.822 3.345L16 18.604l-5.839-3.678 5.892-3.559zm10.11.195l-5.998-3.833-4.124 3.458-4.031-3.458-6.173 4.021 4.25 3.233-4.25 3.233 4.229 2.505 1.944 1.15 4.031-3.093 4.03 3.093 1.97-1.182 4.123-2.473-3.936-3.375 3.935-3.279z"/></g><metadata><rdf:RDF xmlns:rdf="http://www.w3.org/1999/02/22-rdf-syntax-ns#" xmlns:rdfs="http://www.w3.org/2000/01/rdf-schema#" xmlns:dc="http://purl.org/dc/elements/1.1/"><rdf:Description about="https://iconscout.com/legal#licenses" dc:title="dropbox,online,social,media" dc:description="dropbox,online,social,media" dc:publisher="Iconscout" dc:date="2017-09-15" dc:format="image/svg+xml" dc:language="en"><dc:creator><rdf:Bag><rdf:li>Epicflaticon by Alfredo</rdf:li></rdf:Bag></dc:creator></rdf:Description></rdf:RDF></metadata></svg>