<?xml version="1.0" encoding="UTF-8"?><svg xmlns="http://www.w3.org/2000/svg" xmlns:xlink="http://www.w3.org/1999/xlink" version="1.1" x="0px" y="0px" viewBox="0 0 32 32" xml:space="preserve"><g id="Layer_7"><path fill="#999" d="M16 0C7.163 0 0 7.163 0 16c0 8.836 7.163 16 16 16s16-7.164 16-16c0-8.837-7.163-16-16-16z"/><path fill="#FFF" d="M13.455 17.354v.036c0 .59.135 1.157.407 1.697.32.566.758 1.014 1.312 1.346.554.331 1.17.498 1.848.498s1.294-.166 1.849-.498a3.626 3.626 0 0 0 1.311-1.346h4.399c-.568 1.599-1.553 2.908-2.957 3.927a7.86 7.86 0 0 1-4.731 1.531 8.294 8.294 0 0 1-3.696-.849c-2.587 1.255-4.447 1.316-5.581.185-.395-.368-.591-.983-.591-1.844 0-.86.166-1.819.499-2.877.332-1.057.887-2.219 1.663-3.486a17.743 17.743 0 0 1 2.753-3.448c.616-.64 1.01-1.033 1.182-1.18-1.528.737-2.908 1.881-4.139 3.429.443-1.795 1.398-3.27 2.864-4.426 1.466-1.156 3.148-1.734 5.045-1.734.197 0 .394.012.591.037 1.38-.615 2.636-.959 3.77-1.033 1.133-.074 1.933.111 2.402.553.936.959 1.023 2.459.259 4.5a8.08 8.08 0 0 1 1.072 4.059c0 .344-.012.651-.037.923H13.455zm-.776 6.049c-1.65-1.008-2.809-2.421-3.475-4.242-1.109 2.164-1.256 3.652-.444 4.463.716.713 2.021.639 3.919-.221zm7.613-8.188c-.049-.886-.407-1.641-1.071-2.269-.665-.627-1.448-.941-2.347-.941-.9 0-1.682.314-2.347.941-.666.627-1.023 1.383-1.073 2.269h6.838zm-.406-6.307a8.012 8.012 0 0 1 3.769 3.098c.567-1.525.542-2.594-.074-3.209-.665-.688-1.897-.651-3.695.111z"/></g><metadata><rdf:RDF xmlns:rdf="http://www.w3.org/1999/02/22-rdf-syntax-ns#" xmlns:rdfs="http://www.w3.org/2000/01/rdf-schema#" xmlns:dc="http://purl.org/dc/elements/1.1/"><rdf:Description about="https://iconscout.com/legal#licenses" dc:title="explorer,online,social,media" dc:description="explorer,online,social,media" dc:publisher="Iconscout" dc:date="2017-09-15" dc:format="image/svg+xml" dc:language="en"><dc:creator><rdf:Bag><rdf:li>Epicflaticon by Alfredo</rdf:li></rdf:Bag></dc:creator></rdf:Description></rdf:RDF></metadata></svg>