<?xml version="1.0" encoding="UTF-8"?><svg xmlns="http://www.w3.org/2000/svg" xmlns:xlink="http://www.w3.org/1999/xlink" version="1.1" x="0px" y="0px" viewBox="0 0 32 32" xml:space="preserve"><g id="Layer_7"><path fill="#999" d="M16 0C7.163 0 0 7.163 0 16c0 8.836 7.163 16 16 16s16-7.164 16-16c0-8.837-7.163-16-16-16z"/><path fill="#FFF" d="M22.014 9.494c1.592 1.634 2.388 3.781 2.388 6.441 0 2.428-.796 4.539-2.388 6.336-1.592 1.797-3.608 2.696-6.049 2.696-2.417 0-4.416-.898-5.997-2.695-1.581-1.797-2.37-3.909-2.37-6.337 0-2.661.779-4.807 2.336-6.441 1.557-1.633 3.567-2.45 6.031-2.45 2.44-.001 4.457.817 6.049 2.45zm-3.051 3.745a10.82 10.82 0 0 0-.418-2.118c-.209-.688-.529-1.219-.958-1.593-.431-.373-.971-.56-1.622-.56-.651 0-1.185.181-1.604.543-.418.362-.726.893-.924 1.593s-.331 1.4-.401 2.1c-.069.7-.105 1.552-.105 2.555 0 .63.012 1.161.035 1.593.022.432.063.957.122 1.575.058.618.151 1.138.279 1.558.128.42.301.835.523 1.243.221.408.505.718.854.928.348.21.755.315 1.22.315.464 0 .877-.105 1.238-.315.36-.21.65-.519.872-.928.221-.408.401-.822.541-1.242.139-.42.244-.939.314-1.558.07-.618.11-1.149.123-1.593.011-.443.017-.968.017-1.575a26.846 26.846 0 0 0-.106-2.521z"/></g><metadata><rdf:RDF xmlns:rdf="http://www.w3.org/1999/02/22-rdf-syntax-ns#" xmlns:rdfs="http://www.w3.org/2000/01/rdf-schema#" xmlns:dc="http://purl.org/dc/elements/1.1/"><rdf:Description about="https://iconscout.com/legal#licenses" dc:title="opera,online,social,media" dc:description="opera,online,social,media" dc:publisher="Iconscout" dc:date="2017-09-15" dc:format="image/svg+xml" dc:language="en"><dc:creator><rdf:Bag><rdf:li>Epicflaticon by Alfredo</rdf:li></rdf:Bag></dc:creator></rdf:Description></rdf:RDF></metadata></svg>