<?xml version="1.0" encoding="UTF-8"?><svg xmlns="http://www.w3.org/2000/svg" xmlns:xlink="http://www.w3.org/1999/xlink" version="1.1" x="0px" y="0px" viewBox="0 0 32 32" xml:space="preserve"><g id="Layer_7"><path fill="#999" d="M16 0C7.163 0 0 7.163 0 16c0 8.836 7.163 16 16 16s16-7.164 16-16c0-8.837-7.163-16-16-16z"/><path fill="#FFF" d="M16.184 6.595v4.411h4.411v2.757h-4.411v4.411c0 1.024.098 1.847.206 2.138.109.29.31.522.606.697.392.235.838.353 1.342.353a4.67 4.67 0 0 0 2.809-.982v2.757c-.735.46-1.578.745-2.191.888a8.776 8.776 0 0 1-1.986.214c-.744 0-1.462-.082-2.143-.307-.621-.204-.968-.43-1.407-.807-.438-.378-.651-.758-.82-1.184-.169-.424-.276-1.306-.276-2.114v-6.065h-2.205v-2.757c.706-.052 1.29-.251 1.783-.67a4.82 4.82 0 0 0 1.192-1.518c.3-.591.333-1.314.333-2.222h2.757z"/></g><metadata><rdf:RDF xmlns:rdf="http://www.w3.org/1999/02/22-rdf-syntax-ns#" xmlns:rdfs="http://www.w3.org/2000/01/rdf-schema#" xmlns:dc="http://purl.org/dc/elements/1.1/"><rdf:Description about="https://iconscout.com/legal#licenses" dc:title="tumblr,online,social,media" dc:description="tumblr,online,social,media" dc:publisher="Iconscout" dc:date="2017-09-15" dc:format="image/svg+xml" dc:language="en"><dc:creator><rdf:Bag><rdf:li>Epicflaticon by Alfredo</rdf:li></rdf:Bag></dc:creator></rdf:Description></rdf:RDF></metadata></svg>