<?xml version="1.0" encoding="UTF-8"?><svg xmlns="http://www.w3.org/2000/svg" xmlns:xlink="http://www.w3.org/1999/xlink" version="1.1" x="0px" y="0px" viewBox="0 0 32 32" xml:space="preserve"><g id="Layer_7"><path fill="#999" d="M16 0C7.163 0 0 7.163 0 16c0 8.836 7.163 16 16 16s16-7.164 16-16c0-8.837-7.163-16-16-16z"/><path fill="#FFF" d="M7.659 14.357s1.521-1.199 2.028-.6c.507.6 2.442 7.836 3.088 9.171.564 1.171 2.119 2.718 3.824 1.613 1.705-1.105 7.373-5.945 8.388-11.66 1.014-5.714-6.821-4.517-7.651.461 2.075-1.245 3.182.506 2.12 2.489-1.06 1.981-2.028 3.273-2.535 3.273-.506 0-.895-1.326-1.475-3.643-.599-2.395-.596-6.71-3.087-6.221-2.35.461-5.438 4.149-5.438 4.149l.738.968z"/></g><metadata><rdf:RDF xmlns:rdf="http://www.w3.org/1999/02/22-rdf-syntax-ns#" xmlns:rdfs="http://www.w3.org/2000/01/rdf-schema#" xmlns:dc="http://purl.org/dc/elements/1.1/"><rdf:Description about="https://iconscout.com/legal#licenses" dc:title="vimeo,online,social,media" dc:description="vimeo,online,social,media" dc:publisher="Iconscout" dc:date="2017-09-15" dc:format="image/svg+xml" dc:language="en"><dc:creator><rdf:Bag><rdf:li>Epicflaticon by Alfredo</rdf:li></rdf:Bag></dc:creator></rdf:Description></rdf:RDF></metadata></svg>