<?xml version="1.0" encoding="UTF-8"?><svg xmlns="http://www.w3.org/2000/svg" xmlns:xlink="http://www.w3.org/1999/xlink" version="1.1" x="0px" y="0px" viewBox="0 0 32 32" xml:space="preserve"><g id="Layer_7"><path fill="#999" d="M16-.016c-8.837 0-16 7.163-16 16 0 8.836 7.163 16 16 16s16-7.164 16-16-7.163-16-16-16z"/><path fill="#FFF" d="M18.76 10.345c0-1.424 2.862-2.162 2.862.246a14.814 14.814 0 0 1-.481 3.659h2.975c.226-1.348.217-2.681.217-4.251 0-4.421-8.333-5.158-8.333.444 0 3.933 1.893 6.003 3.873 7.093C18.224 20.705 16 22.432 16 22.432 9.776 17.47 10.379 9.067 10.379 9.067H7.667c.051 11.351 6.176 15.33 6.929 15.921.752.591.903.541 1.807.491.902-.049 2.959-2.065 5.47-5.895.242-.371.46-.726.657-1.071 1.051.23 1.802.235 1.802.235V16.34c-5.271-.492-5.572-4.913-5.572-5.995z"/></g><metadata><rdf:RDF xmlns:rdf="http://www.w3.org/1999/02/22-rdf-syntax-ns#" xmlns:rdfs="http://www.w3.org/2000/01/rdf-schema#" xmlns:dc="http://purl.org/dc/elements/1.1/"><rdf:Description about="https://iconscout.com/legal#licenses" dc:title="vine,online,social,media" dc:description="vine,online,social,media" dc:publisher="Iconscout" dc:date="2017-09-15" dc:format="image/svg+xml" dc:language="en"><dc:creator><rdf:Bag><rdf:li>Epicflaticon by Alfredo</rdf:li></rdf:Bag></dc:creator></rdf:Description></rdf:RDF></metadata></svg>